<svg width="26" height="26" viewBox="0 0 26 26" fill="none" xmlns="http://www.w3.org/2000/svg">
<g id="directions_bus_24px">
<rect width="26" height="26" fill="white"/>
<path id="icon/maps/directions_bus_24px" fill-rule="evenodd" clip-rule="evenodd" d="M4.33337 7.04171C4.33337 3.25004 8.21171 2.70837 13 2.70837C17.7884 2.70837 21.6667 3.25004 21.6667 7.04171V17.875C21.6667 18.8284 21.2442 19.6842 20.5834 20.28V22.2084C20.5834 22.8042 20.0959 23.2917 19.5 23.2917H18.4167C17.8209 23.2917 17.3334 22.8042 17.3334 22.2084V21.125H8.66671V22.2084C8.66671 22.8042 8.17921 23.2917 7.58337 23.2917H6.50004C5.90421 23.2917 5.41671 22.8042 5.41671 22.2084V20.28C4.75587 19.6842 4.33337 18.8284 4.33337 17.875V7.04171ZM13 4.87504C9.00254 4.87504 7.46421 5.37337 6.86837 5.94754H19.1317C18.5359 5.37337 16.9975 4.87504 13 4.87504ZM19.5 8.11421V11.375H6.50004V8.11421H19.5ZM18.8175 18.9584L19.1317 18.6659C19.2725 18.5467 19.5 18.2759 19.5 17.875V13.5417H6.50004V17.875C6.50004 18.2759 6.72754 18.5467 6.86837 18.6659L7.18254 18.9584H18.8175ZM9.20837 14.625C8.31091 14.625 7.58337 15.3526 7.58337 16.25C7.58337 17.1475 8.31091 17.875 9.20837 17.875C10.1058 17.875 10.8334 17.1475 10.8334 16.25C10.8334 15.3526 10.1058 14.625 9.20837 14.625ZM15.1667 16.25C15.1667 15.3526 15.8942 14.625 16.7917 14.625C17.6892 14.625 18.4167 15.3526 18.4167 16.25C18.4167 17.1475 17.6892 17.875 16.7917 17.875C15.8942 17.875 15.1667 17.1475 15.1667 16.25Z" fill="#14213D"/>
</g>
</svg>
