<svg width="33" height="32" viewBox="0 0 33 32" fill="none" xmlns="http://www.w3.org/2000/svg">
<path d="M16.5 0C7.38375 0 0 7.34589 0 16.4062C0 23.6564 4.72725 29.8047 11.2819 31.9717C12.1069 32.1261 12.4094 31.6189 12.4094 31.1828C12.4094 30.7931 12.3956 29.7609 12.3888 28.3937C7.799 29.3836 6.831 26.1926 6.831 26.1926C6.08025 24.299 4.99537 23.7931 4.99537 23.7931C3.50075 22.776 5.11088 22.7965 5.11088 22.7965C6.76775 22.9113 7.63812 24.4863 7.63812 24.4863C9.10937 26.9951 11.5005 26.2705 12.4438 25.8508C12.5923 24.7898 13.0171 24.0666 13.4888 23.6564C9.82438 23.2463 5.973 21.8353 5.973 15.549C5.973 13.758 6.61238 12.2951 7.67112 11.1467C7.4855 10.7324 6.92863 9.06445 7.8155 6.80449C7.8155 6.80449 9.19738 6.36425 12.353 8.48613C13.673 8.12109 15.0755 7.94062 16.478 7.93242C17.8805 7.94062 19.283 8.12109 20.603 8.48613C23.738 6.36425 25.1199 6.80449 25.1199 6.80449C26.0067 9.06445 25.4499 10.7324 25.2849 11.1467C26.3367 12.2951 26.9761 13.758 26.9761 15.549C26.9761 21.8517 23.1193 23.2394 19.448 23.6428C20.0255 24.1349 20.5618 25.1412 20.5618 26.6779C20.5618 28.8736 20.5411 30.6373 20.5411 31.1705C20.5411 31.6011 20.8299 32.1138 21.6755 31.9498C28.2769 29.7978 33 23.6455 33 16.4062C33 7.34589 25.6121 0 16.5 0" fill="white"/>
</svg>
