<svg width="39" height="32" viewBox="0 0 39 32" fill="none" xmlns="http://www.w3.org/2000/svg">
<path d="M38.9236 3.81073C37.4856 4.44886 35.95 4.88358 34.3332 5.08207C35.9809 4.07977 37.2483 2.50003 37.8479 0.615164C36.3026 1.52561 34.5899 2.18834 32.7668 2.55744C31.3108 0.984262 29.2358 0 26.9316 0C22.5167 0 18.937 3.61388 18.937 8.06603C18.937 8.7058 19.0101 9.32096 19.1433 9.90988C12.4974 9.59327 6.60697 6.37146 2.66489 1.501C1.97104 2.68539 1.58268 4.06172 1.58268 5.56108C1.58268 8.36623 2.99638 10.8318 5.13804 12.2803C3.82672 12.2377 2.59339 11.8735 1.51769 11.2698V11.3699C1.51769 15.2823 4.2687 18.5451 7.92967 19.2883C7.25857 19.4703 6.5501 19.5688 5.82376 19.5688C5.31353 19.5688 4.82442 19.5196 4.33532 19.4277C5.36065 22.6315 8.30828 24.9674 11.8165 25.0331C9.08662 27.1968 5.62714 28.4862 1.90117 28.4862C1.26745 28.4862 0.635349 28.4485 0 28.3763C3.55698 30.663 7.74768 32 12.2796 32C26.9918 32 35.027 19.7033 35.027 9.05685C35.027 8.714 35.027 8.36787 35.0027 8.02338C36.5642 6.89311 37.9275 5.4643 39 3.84354L38.9236 3.81073Z" fill="white"/>
</svg>
